<?xml version="1.0" encoding="utf-8" ?>
<svg baseProfile="tiny" fill="none" height="800px" stroke="#000000" stroke-linecap="round" stroke-linejoin="round" stroke-width="0.5" version="1.2" viewBox="-12.65 -12.65 25.3 25.3" width="800px" xmlns="http://www.w3.org/2000/svg" xmlns:ev="http://www.w3.org/2001/xml-events" xmlns:xlink="http://www.w3.org/1999/xlink"><defs /><rect fill="#001023" height="25.3" stroke="none" width="25.3" x="-12.65" y="-12.65" /><line stroke="#848484" stroke-dasharray="0.2 0.12" stroke-width="0.023" x1="0.0" x2="0.0" y1="0.0" y2="-11.5" /><line stroke="#848484" stroke-dasharray="0.2 0.12" stroke-width="0.023" x1="0.0" x2="5.75" y1="0.0" y2="-9.9593" /><line stroke="#848484" stroke-dasharray="0.2 0.12" stroke-width="0.023" x1="0.0" x2="-5.75" y1="0.0" y2="-9.9593" /><path d="M-8.4004464167,-4.85 A9.7,9.7 0 0,1 -6.0777153343,-7.5598529294 A1.2,1.2 0 0,1 -4.2866025404,-7.2246133918 L-2.4184473036,-3.9888736053 A2.2,2.2 0 0,1 -2.4944441492,-1.6666578493 A3.0,3.0 0 0,0 -2.6905901115,-1.326923077 A2.2,2.2 0 0,1 -4.6636895265,-0.1 L-8.4285230023,-0.1 A1.0,1.0 0 0,1 -9.4201139437,-1.2294117647 A9.5,9.5 0 0,1 -5.9524016161,-7.403979673 A1.0,1.0 0 0,1 -4.4598076212,-7.1246133917 L-2.5916523844,-3.8888736054 A2.0,2.0 0 0,1 -2.6607404258,-1.7777683726 A3.2,3.2 0 0,0 -2.8699627856,-1.4153846153 A2.0,2.0 0 0,1 -4.6636895266,-0.3 L-8.4285230023,-0.3 A0.8,0.8 0 0,1 -9.2217957554,-1.2035294118 A9.3,9.3 0 0,1 -5.8270878979,-7.2481064169 A0.8,0.8 0 0,1 -4.6330127019,-7.0246133917 L-2.7648574652,-3.7888736054 A1.8,1.8 0 0,1 -2.8270367025,-1.8888788958 A3.4,3.4 0 0,0 -3.0493354596,-1.5038461538 A1.8,1.8 0 0,1 -4.6636895265,-0.5 L-8.4285230023,-0.5000000001 A0.6,0.6 0 0,1 -9.0234775672,-1.1776470589 A9.1,9.1 0 0,1 -5.7017741796,-7.0922331607 A0.6,0.6 0 0,1 -4.8062177826,-6.9246133918 L-2.9380625459,-3.6888736053 A1.6,1.6 0 0,1 -2.9933329791,-1.9999894191 A3.6,3.6 0 0,0 -3.2287081338,-1.5923076922 A1.6,1.6 0 0,1 -4.6636895266,-0.7 L-8.4285230023,-0.7 A0.4,0.4 0 0,1 -8.8251593789,-1.1517647059 A8.9,8.9 0 0,1 -5.5764604613,-6.9363599044 A0.4,0.4 0 0,1 -4.9794228634,-6.8246133918 L-3.1112676267,-3.5888736054 A1.4,1.4 0 0,1 -3.1596292557,-2.1110999424 A3.8,3.8 0 0,0 -3.4080808079,-1.6807692308 A1.4,1.4 0 0,1 -4.6636895267,-0.9 L-8.4285230023,-0.9000000001 A0.2,0.2 0 0,1 -8.6268411906,-1.125882353 A8.7,8.7 0 0,1 -5.4511467431,-6.7804866481 A0.2,0.2 0 0,1 -5.1526279442,-6.7246133918 L-3.2844727075,-3.4888736054 A1.2,1.2 0 0,1 -3.3259255323,-2.2222104656 A4.0,4.0 0 0,0 -3.5874534819,-1.7692307693 A1.2,1.2 0 0,1 -4.6636895264,-1.1000000001 L-8.3138438763,-1.1 A0.1,0.1 0 0,1 -8.4128182082,-1.2142857143 A8.5,8.5 0 0,1 -5.4174258351,-6.5499234592 A0.1,0.1 0 0,1 -5.2670888731,-6.5228655362 L-3.4576777882,-3.3888736053 A1.0,1.0 0 0,1 -3.4922218089,-2.3333209889 A4.2,4.2 0 0,0 -3.766826156,-1.8576923077 A1.0,1.0 0 0,1 -4.6636895266,-1.3000000001 L-8.0796039507,-1.3 A0.1,0.1 0 0,1 -8.1781357062,-1.4170731707 A8.3,8.3 0 0,1 -5.4727715047,-6.2400939142 A0.1,0.1 0 0,1 -5.3202319583,-6.2149120598 L-3.630882869,-3.2888736054 A0.8,0.8 0 0,1 -3.6585180855,-2.4444315123 A4.4,4.4 0 0,0 -3.9461988302,-1.9461538462 A0.8,0.8 0 0,1 -4.6636895265,-1.5 L-7.838367177,-1.4999999999 A0.1,0.1 0 0,1 -7.9363467666,-1.6199999999 A8.1,8.1 0 0,1 -5.5244842906,-5.9236874768 A0.1,0.1 0 0,1 -5.3696782404,-5.9005555327 L-3.8040879497,-3.1888736054 A0.6,0.6 0 0,1 -3.8248143621,-2.5555420355 A4.6,4.6 0 0,0 -4.1255715043,-2.0346153845 A0.6,0.6 0 0,1 -4.6636895266,-1.7 L-7.5894663844,-1.7000000001 A0.1,0.1 0 0,1 -7.6867672354,-1.8230769231 A7.9,7.9 0 0,1 -5.5722003544,-5.6000520723 A0.1,0.1 0 0,1 -5.4150636322,-5.5791653372 L-3.9772930304,-3.0888736053 A0.4,0.4 0 0,1 -3.9911106388,-2.6666525588 A4.8,4.8 0 0,0 -4.3049441783,-2.123076923 A0.4,0.4 0 0,1 -4.6636895265,-1.9 L-7.3321211119,-1.9000000001 A0.1,0.1 0 0,1 -7.4285963897,-2.0263157896 A7.7,7.7 0 0,1 -5.6154910392,-5.2684210526 A0.1,0.1 0 0,1 -5.4559600438,-5.25 L-4.1504981111,-2.9888736054 A0.2,0.2 0 0,1 -4.1574069153,-2.7777630821 A5.0,5.0 0 0,0 -4.4843168524,-2.2115384615 A0.2,0.2 0 0,1 -4.6636895265,-2.0999999999 L-7.0654086931,-2.0999999999 A0.1,0.1 0 0,1 -7.1608871889,-2.2297297297 A7.5,7.5 0 0,1 -5.6538455768,-4.9278829322 A0.1,0.1 0 0,1 -5.4918584287,-4.9121778265 L-4.3545898989,-2.942370951 A0.1,0.1 0 0,1 -4.3573963555,-2.8377979141 A5.2,5.2 0 0,0 -4.6363032622,-2.3547169812 A0.1,0.1 0 0,1 -4.7254629404,-2.3 L-6.7882250994,-2.3 A0.1,0.1 0 0,1 -6.8825060035,-2.4333333333 A7.3,7.3 0 0,1 -5.6866473957,-4.5773399916 A0.1,0.1 0 0,1 -5.5221455759,-4.564636704 L-4.5883876727,-2.9473205739 A0.1,0.1 0 0,1 -4.589990391,-2.844642018 A5.4,5.4 0 0,0 -4.7585274478,-2.5527272727 A0.1,0.1 0 0,1 -4.8466483265,-2.5 L-6.6452990904,-2.5 " stroke="#C83434" stroke-dasharray="none" stroke-opacity="0.5" stroke-width="0.1" /><path d="M0.0,-9.7 A9.7,9.7 0 0,1 3.5081670186,-9.0433823412 A1.2,1.2 0 0,1 4.1133974596,-7.3246133918 L2.2452422229,-4.0888736053 A2.2,2.2 0 0,1 0.1961459623,-2.9935809262 A3.0,3.0 0 0,0 -0.1961459622,-2.9935809262 A2.2,2.2 0 0,1 -2.2452422229,-4.0888736053 L-4.1276589608,-7.3493150364 A1.0,1.0 0 0,1 -3.6453551519,-8.7727638642 A9.5,9.5 0 0,1 3.4358336779,-8.8569208496 A1.0,1.0 0 0,1 3.9401923788,-7.4246133918 L2.0720371422,-4.1888736054 A2.0,2.0 0 0,1 0.2092223598,-3.1931529879 A3.2,3.2 0 0,0 -0.2092223598,-3.1931529879 A2.0,2.0 0 0,1 -2.0720371422,-4.1888736054 L-3.95445388,-7.4493150364 A0.8,0.8 0 0,1 -3.5686108329,-8.5880740986 A9.3,9.3 0 0,1 3.3635003374,-8.6704593581 A0.8,0.8 0 0,1 3.766987298,-7.5246133917 L1.8988320614,-4.2888736054 A1.8,1.8 0 0,1 0.2222987572,-3.3927250497 A3.4,3.4 0 0,0 -0.2222987572,-3.3927250496 A1.8,1.8 0 0,1 -1.8988320614,-4.2888736053 L-3.7812487992,-7.5493150364 A0.6,0.6 0 0,1 -3.4918665139,-8.4033843331 A9.1,9.1 0 0,1 3.2911669969,-8.4839978665 A0.6,0.6 0 0,1 3.5937822174,-7.6246133918 L1.7256269806,-4.3888736053 A1.6,1.6 0 0,1 0.2353751547,-3.5922971114 A3.6,3.6 0 0,0 -0.2353751548,-3.5922971114 A1.6,1.6 0 0,1 -1.7256269807,-4.3888736054 L-3.6080437185,-7.6493150364 A0.4,0.4 0 0,1 -3.415122195,-8.2186945675 A8.9,8.9 0 0,1 3.2188336563,-8.2975363749 A0.4,0.4 0 0,1 3.4205771366,-7.7246133918 L1.5524218999,-4.4888736054 A1.4,1.4 0 0,1 0.2484515522,-3.7918691732 A3.8,3.8 0 0,0 -0.2484515522,-3.7918691732 A1.4,1.4 0 0,1 -1.5524218999,-4.4888736055 L-3.4348386377,-7.7493150364 A0.2,0.2 0 0,1 -3.3383778759,-8.034004802 A8.7,8.7 0 0,1 3.1465003157,-8.1110748833 A0.2,0.2 0 0,1 3.2473720558,-7.8246133918 L1.3792168191,-4.5888736054 A1.2,1.2 0 0,1 0.2615279496,-3.9914412349 A4.0,4.0 0 0,0 -0.2615279496,-3.9914412349 A1.2,1.2 0 0,1 -1.379216819,-4.5888736053 L-3.204293994,-7.75 A0.1,0.1 0 0,1 -3.1548068281,-7.8928571429 A8.5,8.5 0 0,1 2.963687191,-7.9665901259 A0.1,0.1 0 0,1 3.0154228233,-7.8228655362 L1.2060117383,-4.6888736053 A1.0,1.0 0 0,1 0.2746043471,-4.1910132966 A4.2,4.2 0 0,0 -0.2746043471,-4.1910132966 A1.0,1.0 0 0,1 -1.2060117383,-4.6888736054 L-2.9139689504,-7.6471422738 A0.1,0.1 0 0,1 -2.8618464882,-7.7910098625 A8.3,8.3 0 0,1 2.6676940993,-7.8596061093 A0.1,0.1 0 0,1 2.7221557469,-7.7149120598 L1.0328066576,-4.7888736054 A0.8,0.8 0 0,1 0.2876807447,-4.3905853584 A4.4,4.4 0 0,0 -0.2876807446,-4.3905853584 A0.8,0.8 0 0,1 -1.0328066576,-4.7888736053 L-2.6201454829,-7.5382250994 A0.1,0.1 0 0,1 -2.5652122293,-7.6830779131 A8.1,8.1 0 0,1 2.3678216937,-7.7461874769 A0.1,0.1 0 0,1 2.4251918675,-7.6005555327 L0.8596015769,-4.8888736054 A0.6,0.6 0 0,1 0.3007571421,-4.5901574201 A4.6,4.6 0 0,0 -0.3007571422,-4.5901574201 A0.6,0.6 0 0,1 -0.8596015769,-4.8888736054 L-2.3224900057,-7.4226706901 A0.1,0.1 0 0,1 -2.2645526892,-7.5684741604 A7.9,7.9 0 0,1 2.0636871799,-7.625693098 A0.1,0.1 0 0,1 2.1241670978,-7.4791653372 L0.6863964961,-4.9888736053 A0.4,0.4 0 0,1 0.3138335396,-4.7897294819 A4.8,4.8 0 0,0 -0.3138335396,-4.7897294818 A0.4,0.4 0 0,1 -0.6863964961,-4.9888736053 L-2.0206122887,-7.2998031466 A0.1,0.1 0 0,1 -1.959457245,-7.4465110827 A7.7,7.7 0 0,1 1.7548409498,-7.497368421 A0.1,0.1 0 0,1 1.818653348,-7.35 L0.5131914154,-5.0888736053 A0.2,0.2 0 0,1 0.3269099371,-4.9893015436 A5.0,5.0 0 0,0 -0.3269099371,-4.9893015436 A0.2,0.2 0 0,1 -0.5131914154,-5.0888736053 L-1.7140509987,-7.1688234163 A0.1,0.1 0 0,1 -1.649441005,-7.3163750841 A7.5,7.5 0 0,1 1.4407490178,-7.3603153647 A0.1,0.1 0 0,1 1.5081415713,-7.2121778265 L0.3708730415,-5.242370951 A0.1,0.1 0 0,1 0.2789069067,-5.1925148953 A5.2,5.2 0 0,0 -0.2789069067,-5.1925148953 A0.1,0.1 0 0,1 -0.3708730415,-5.242370951 L-1.402254121,-7.0287753827 A0.1,0.1 0 0,1 -1.3339245192,-7.1770917074 A7.3,7.3 0 0,1 1.1207690166,-7.2134511028 A0.1,0.1 0 0,1 1.1920185568,-7.0646367041 L0.2582606538,-5.4473205739 A0.1,0.1 0 0,1 0.1685370568,-5.3973692907 A5.4,5.4 0 0,0 -0.1685370568,-5.3973692907 A0.1,0.1 0 0,1 -0.2582606538,-5.4473205739 L-1.1575860357,-7.004997828 " stroke="#C83434" stroke-dasharray="none" stroke-opacity="0.5" stroke-width="0.1" /><path d="M8.4004464167,-4.85 A9.7,9.7 0 0,1 9.5858823529,-1.4835294118 A1.2,1.2 0 0,1 8.4,-0.1 L4.6636895265,-0.1 A2.2,2.2 0 0,1 2.6905901115,-1.3269230769 A3.0,3.0 0 0,0 2.4944441493,-1.6666578492 A2.2,2.2 0 0,1 2.4184473036,-3.9888736053 L4.3008640415,-7.2493150364 A1.0,1.0 0 0,1 5.7747587918,-7.5433520995 A9.5,9.5 0 0,1 9.388235294,-1.4529411766 A1.0,1.0 0 0,1 8.4,-0.3000000001 L4.6636895266,-0.3 A2.0,2.0 0 0,1 2.8699627856,-1.4153846153 A3.2,3.2 0 0,0 2.6607404258,-1.7777683726 A2.0,2.0 0 0,1 2.5916523844,-3.8888736054 L4.4740691223,-7.1493150364 A0.8,0.8 0 0,1 5.6531849225,-7.3845446868 A9.3,9.3 0 0,1 9.1905882353,-1.4223529412 A0.8,0.8 0 0,1 8.3999999999,-0.5 L4.6636895266,-0.5 A1.8,1.8 0 0,1 3.0493354597,-1.5038461539 A3.4,3.4 0 0,0 2.8270367024,-1.8888788958 A1.8,1.8 0 0,1 2.7648574651,-3.7888736053 L4.6472742031,-7.0493150363 A0.6,0.6 0 0,1 5.5316110533,-7.2257372742 A9.1,9.1 0 0,1 8.9929411765,-1.3917647058 A0.6,0.6 0 0,1 8.4,-0.7 L4.6636895265,-0.7 A1.6,1.6 0 0,1 3.2287081338,-1.5923076923 A3.6,3.6 0 0,0 2.993332979,-1.9999894192 A1.6,1.6 0 0,1 2.9380625459,-3.6888736054 L4.8204792838,-6.9493150364 A0.4,0.4 0 0,1 5.4100371839,-7.0669298616 A8.9,8.9 0 0,1 8.7952941176,-1.3611764705 A0.4,0.4 0 0,1 8.4,-0.9 L4.6636895266,-0.9 A1.4,1.4 0 0,1 3.4080808079,-1.6807692308 A3.8,3.8 0 0,0 3.1596292557,-2.1110999424 A1.4,1.4 0 0,1 3.1112676268,-3.5888736055 L4.9936843646,-6.8493150363 A0.2,0.2 0 0,1 5.2884633147,-6.908122449 A8.7,8.7 0 0,1 8.5976470588,-1.3305882352 A0.2,0.2 0 0,1 8.4,-1.1 L4.6636895266,-1.1 A1.2,1.2 0 0,1 3.5874534819,-1.7692307693 A4.0,4.0 0 0,0 3.3259255323,-2.2222104656 A1.2,1.2 0 0,1 3.2844727074,-3.4888736052 L5.1095498823,-6.65 A0.1,0.1 0 0,1 5.2580113801,-6.6785714286 A8.5,8.5 0 0,1 8.3811130261,-1.4166666667 A0.1,0.1 0 0,1 8.2825116964,-1.3 L4.6636895265,-1.3 A1.0,1.0 0 0,1 3.766826156,-1.8576923077 A4.2,4.2 0 0,0 3.4922218089,-2.3333209889 A1.0,1.0 0 0,1 3.4576777883,-3.3888736053 L5.1656350003,-6.3471422738 A0.1,0.1 0 0,1 5.316289218,-6.3739366918 A8.3,8.3 0 0,1 8.140465604,-1.6195121951 A0.1,0.1 0 0,1 8.0423877052,-1.5 L4.6636895266,-1.5 A0.8,0.8 0 0,1 3.9461988302,-1.9461538461 A4.4,4.4 0 0,0 3.6585180856,-2.4444315122 A0.8,0.8 0 0,1 3.6308828689,-3.2888736053 L5.2182216941,-6.0382250995 A0.1,0.1 0 0,1 5.3711345373,-6.0630779132 A8.1,8.1 0 0,1 7.8923059843,-1.8225000001 A0.1,0.1 0 0,1 7.7948701079,-1.7 L4.6636895266,-1.7 A0.6,0.6 0 0,1 4.1255715042,-2.0346153846 A4.6,4.6 0 0,0 3.8248143621,-2.5555420356 A0.6,0.6 0 0,1 3.8040879497,-3.1888736054 L5.2669763787,-5.72267069 A0.1,0.1 0 0,1 5.4222145462,-5.7453972373 A7.9,7.9 0 0,1 7.6358875343,-2.0256410257 A0.1,0.1 0 0,1 7.53923073,-1.9 L4.6636895265,-1.9 A0.4,0.4 0 0,1 4.3049441784,-2.1230769231 A4.8,4.8 0 0,0 3.9911106387,-2.6666525588 A0.4,0.4 0 0,1 3.9772930304,-3.0888736053 L5.3115088232,-5.3998031465 A0.1,0.1 0 0,1 5.4691391447,-5.4201952931 A7.7,7.7 0 0,1 7.370331989,-2.2289473684 A0.1,0.1 0 0,1 7.2746133918,-2.1 L4.6636895265,-2.0999999999 A0.2,0.2 0 0,1 4.4843168524,-2.2115384615 A5.0,5.0 0 0,0 4.1574069153,-2.7777630821 A0.2,0.2 0 0,1 4.1504981111,-2.9888736054 L5.3513576944,-5.0688234164 A0.1,0.1 0 0,1 5.5114461839,-5.0866453544 A7.5,7.5 0 0,1 7.0945945946,-2.4324324325 A0.1,0.1 0 0,1 7.0,-2.3 L4.7254629404,-2.3 A0.1,0.1 0 0,1 4.6363032622,-2.3547169812 A5.2,5.2 0 0,0 4.3573963555,-2.8377979141 A0.1,0.1 0 0,1 4.3545898989,-2.942370951 L5.3859709784,-4.7287753827 A0.1,0.1 0 0,1 5.5485814843,-4.7437583741 A7.3,7.3 0 0,1 6.8074164123,-2.6361111112 A0.1,0.1 0 0,1 6.7141641327,-2.5000000001 L4.8466483265,-2.5 A0.1,0.1 0 0,1 4.7585274478,-2.5527272727 A5.4,5.4 0 0,0 4.589990391,-2.844642018 A0.1,0.1 0 0,1 4.5883876727,-2.9473205739 L5.4877130547,-4.504997828 " stroke="#C83434" stroke-dasharray="none" stroke-opacity="0.5" stroke-width="0.1" /><path d="M8.4004464167,4.85 A9.7,9.7 0 0,0 9.5858823529,1.4835294118 A1.2,1.2 0 0,0 8.4,0.1 L4.6636895265,0.1 A2.2,2.2 0 0,0 2.6905901115,1.3269230769 A3.0,3.0 0 0,1 2.4944441493,1.6666578492 A2.2,2.2 0 0,0 2.4184473036,3.9888736053 L4.3008640415,7.2493150364 A1.0,1.0 0 0,0 5.7747587918,7.5433520995 A9.5,9.5 0 0,0 9.388235294,1.4529411766 A1.0,1.0 0 0,0 8.4,0.3000000001 L4.6636895266,0.3 A2.0,2.0 0 0,0 2.8699627856,1.4153846153 A3.2,3.2 0 0,1 2.6607404258,1.7777683726 A2.0,2.0 0 0,0 2.5916523844,3.8888736054 L4.4740691223,7.1493150364 A0.8,0.8 0 0,0 5.6531849225,7.3845446868 A9.3,9.3 0 0,0 9.1905882353,1.4223529412 A0.8,0.8 0 0,0 8.3999999999,0.5 L4.6636895266,0.5 A1.8,1.8 0 0,0 3.0493354597,1.5038461539 A3.4,3.4 0 0,1 2.8270367024,1.8888788958 A1.8,1.8 0 0,0 2.7648574651,3.7888736053 L4.6472742031,7.0493150363 A0.6,0.6 0 0,0 5.5316110533,7.2257372742 A9.1,9.1 0 0,0 8.9929411765,1.3917647058 A0.6,0.6 0 0,0 8.4,0.7 L4.6636895265,0.7 A1.6,1.6 0 0,0 3.2287081338,1.5923076923 A3.6,3.6 0 0,1 2.993332979,1.9999894192 A1.6,1.6 0 0,0 2.9380625459,3.6888736054 L4.8204792838,6.9493150364 A0.4,0.4 0 0,0 5.4100371839,7.0669298616 A8.9,8.9 0 0,0 8.7952941176,1.3611764705 A0.4,0.4 0 0,0 8.4,0.9 L4.6636895266,0.9 A1.4,1.4 0 0,0 3.4080808079,1.6807692308 A3.8,3.8 0 0,1 3.1596292557,2.1110999424 A1.4,1.4 0 0,0 3.1112676268,3.5888736055 L4.9936843646,6.8493150363 A0.2,0.2 0 0,0 5.2884633147,6.908122449 A8.7,8.7 0 0,0 8.5976470588,1.3305882352 A0.2,0.2 0 0,0 8.4,1.1 L4.6636895266,1.1 A1.2,1.2 0 0,0 3.5874534819,1.7692307693 A4.0,4.0 0 0,1 3.3259255323,2.2222104656 A1.2,1.2 0 0,0 3.2844727074,3.4888736052 L5.1095498823,6.65 A0.1,0.1 0 0,0 5.2580113801,6.6785714286 A8.5,8.5 0 0,0 8.3811130261,1.4166666667 A0.1,0.1 0 0,0 8.2825116964,1.3 L4.6636895265,1.3 A1.0,1.0 0 0,0 3.766826156,1.8576923077 A4.2,4.2 0 0,1 3.4922218089,2.3333209889 A1.0,1.0 0 0,0 3.4576777883,3.3888736053 L5.1656350003,6.3471422738 A0.1,0.1 0 0,0 5.316289218,6.3739366918 A8.3,8.3 0 0,0 8.140465604,1.6195121951 A0.1,0.1 0 0,0 8.0423877052,1.5 L4.6636895266,1.5 A0.8,0.8 0 0,0 3.9461988302,1.9461538461 A4.4,4.4 0 0,1 3.6585180856,2.4444315122 A0.8,0.8 0 0,0 3.6308828689,3.2888736053 L5.2182216941,6.0382250995 A0.1,0.1 0 0,0 5.3711345373,6.0630779132 A8.1,8.1 0 0,0 7.8923059843,1.8225000001 A0.1,0.1 0 0,0 7.7948701079,1.7 L4.6636895266,1.7 A0.6,0.6 0 0,0 4.1255715042,2.0346153846 A4.6,4.6 0 0,1 3.8248143621,2.5555420356 A0.6,0.6 0 0,0 3.8040879497,3.1888736054 L5.2669763787,5.72267069 A0.1,0.1 0 0,0 5.4222145462,5.7453972373 A7.9,7.9 0 0,0 7.6358875343,2.0256410257 A0.1,0.1 0 0,0 7.53923073,1.9 L4.6636895265,1.9 A0.4,0.4 0 0,0 4.3049441784,2.1230769231 A4.8,4.8 0 0,1 3.9911106387,2.6666525588 A0.4,0.4 0 0,0 3.9772930304,3.0888736053 L5.3115088232,5.3998031465 A0.1,0.1 0 0,0 5.4691391447,5.4201952931 A7.7,7.7 0 0,0 7.370331989,2.2289473684 A0.1,0.1 0 0,0 7.2746133918,2.1 L4.6636895265,2.0999999999 A0.2,0.2 0 0,0 4.4843168524,2.2115384615 A5.0,5.0 0 0,1 4.1574069153,2.7777630821 A0.2,0.2 0 0,0 4.1504981111,2.9888736054 L5.3513576944,5.0688234164 A0.1,0.1 0 0,0 5.5114461839,5.0866453544 A7.5,7.5 0 0,0 7.0945945946,2.4324324325 A0.1,0.1 0 0,0 7.0,2.3 L4.7254629404,2.3 A0.1,0.1 0 0,0 4.6363032622,2.3547169812 A5.2,5.2 0 0,1 4.3573963555,2.8377979141 A0.1,0.1 0 0,0 4.3545898989,2.942370951 L5.3859709784,4.7287753827 A0.1,0.1 0 0,0 5.5485814843,4.7437583741 A7.3,7.3 0 0,0 6.8074164123,2.6361111112 A0.1,0.1 0 0,0 6.7141641327,2.5000000001 L4.8466483265,2.5 A0.1,0.1 0 0,0 4.7585274478,2.5527272727 A5.4,5.4 0 0,1 4.589990391,2.844642018 A0.1,0.1 0 0,0 4.5883876727,2.9473205739 L5.4877130547,4.504997828 " stroke="#C83434" stroke-dasharray="none" stroke-opacity="0.5" stroke-width="0.1" /><path d="M0.0,9.7 A9.7,9.7 0 0,0 3.5081670186,9.0433823412 A1.2,1.2 0 0,0 4.1133974596,7.3246133918 L2.2452422229,4.0888736053 A2.2,2.2 0 0,0 0.1961459623,2.9935809262 A3.0,3.0 0 0,1 -0.1961459622,2.9935809262 A2.2,2.2 0 0,0 -2.2452422229,4.0888736053 L-4.1276589608,7.3493150364 A1.0,1.0 0 0,0 -3.6453551519,8.7727638642 A9.5,9.5 0 0,0 3.4358336779,8.8569208496 A1.0,1.0 0 0,0 3.9401923788,7.4246133918 L2.0720371422,4.1888736054 A2.0,2.0 0 0,0 0.2092223598,3.1931529879 A3.2,3.2 0 0,1 -0.2092223598,3.1931529879 A2.0,2.0 0 0,0 -2.0720371422,4.1888736054 L-3.95445388,7.4493150364 A0.8,0.8 0 0,0 -3.5686108329,8.5880740986 A9.3,9.3 0 0,0 3.3635003374,8.6704593581 A0.8,0.8 0 0,0 3.766987298,7.5246133917 L1.8988320614,4.2888736054 A1.8,1.8 0 0,0 0.2222987572,3.3927250497 A3.4,3.4 0 0,1 -0.2222987572,3.3927250496 A1.8,1.8 0 0,0 -1.8988320614,4.2888736053 L-3.7812487992,7.5493150364 A0.6,0.6 0 0,0 -3.4918665139,8.4033843331 A9.1,9.1 0 0,0 3.2911669969,8.4839978665 A0.6,0.6 0 0,0 3.5937822174,7.6246133918 L1.7256269806,4.3888736053 A1.6,1.6 0 0,0 0.2353751547,3.5922971114 A3.6,3.6 0 0,1 -0.2353751548,3.5922971114 A1.6,1.6 0 0,0 -1.7256269807,4.3888736054 L-3.6080437185,7.6493150364 A0.4,0.4 0 0,0 -3.415122195,8.2186945675 A8.9,8.9 0 0,0 3.2188336563,8.2975363749 A0.4,0.4 0 0,0 3.4205771366,7.7246133918 L1.5524218999,4.4888736054 A1.4,1.4 0 0,0 0.2484515522,3.7918691732 A3.8,3.8 0 0,1 -0.2484515522,3.7918691732 A1.4,1.4 0 0,0 -1.5524218999,4.4888736055 L-3.4348386377,7.7493150364 A0.2,0.2 0 0,0 -3.3383778759,8.034004802 A8.7,8.7 0 0,0 3.1465003157,8.1110748833 A0.2,0.2 0 0,0 3.2473720558,7.8246133918 L1.3792168191,4.5888736054 A1.2,1.2 0 0,0 0.2615279496,3.9914412349 A4.0,4.0 0 0,1 -0.2615279496,3.9914412349 A1.2,1.2 0 0,0 -1.379216819,4.5888736053 L-3.204293994,7.75 A0.1,0.1 0 0,0 -3.1548068281,7.8928571429 A8.5,8.5 0 0,0 2.963687191,7.9665901259 A0.1,0.1 0 0,0 3.0154228233,7.8228655362 L1.2060117383,4.6888736053 A1.0,1.0 0 0,0 0.2746043471,4.1910132966 A4.2,4.2 0 0,1 -0.2746043471,4.1910132966 A1.0,1.0 0 0,0 -1.2060117383,4.6888736054 L-2.9139689504,7.6471422738 A0.1,0.1 0 0,0 -2.8618464882,7.7910098625 A8.3,8.3 0 0,0 2.6676940993,7.8596061093 A0.1,0.1 0 0,0 2.7221557469,7.7149120598 L1.0328066576,4.7888736054 A0.8,0.8 0 0,0 0.2876807447,4.3905853584 A4.4,4.4 0 0,1 -0.2876807446,4.3905853584 A0.8,0.8 0 0,0 -1.0328066576,4.7888736053 L-2.6201454829,7.5382250994 A0.1,0.1 0 0,0 -2.5652122293,7.6830779131 A8.1,8.1 0 0,0 2.3678216937,7.7461874769 A0.1,0.1 0 0,0 2.4251918675,7.6005555327 L0.8596015769,4.8888736054 A0.6,0.6 0 0,0 0.3007571421,4.5901574201 A4.6,4.6 0 0,1 -0.3007571422,4.5901574201 A0.6,0.6 0 0,0 -0.8596015769,4.8888736054 L-2.3224900057,7.4226706901 A0.1,0.1 0 0,0 -2.2645526892,7.5684741604 A7.9,7.9 0 0,0 2.0636871799,7.625693098 A0.1,0.1 0 0,0 2.1241670978,7.4791653372 L0.6863964961,4.9888736053 A0.4,0.4 0 0,0 0.3138335396,4.7897294819 A4.8,4.8 0 0,1 -0.3138335396,4.7897294818 A0.4,0.4 0 0,0 -0.6863964961,4.9888736053 L-2.0206122887,7.2998031466 A0.1,0.1 0 0,0 -1.959457245,7.4465110827 A7.7,7.7 0 0,0 1.7548409498,7.497368421 A0.1,0.1 0 0,0 1.818653348,7.35 L0.5131914154,5.0888736053 A0.2,0.2 0 0,0 0.3269099371,4.9893015436 A5.0,5.0 0 0,1 -0.3269099371,4.9893015436 A0.2,0.2 0 0,0 -0.5131914154,5.0888736053 L-1.7140509987,7.1688234163 A0.1,0.1 0 0,0 -1.649441005,7.3163750841 A7.5,7.5 0 0,0 1.4407490178,7.3603153647 A0.1,0.1 0 0,0 1.5081415713,7.2121778265 L0.3708730415,5.242370951 A0.1,0.1 0 0,0 0.2789069067,5.1925148953 A5.2,5.2 0 0,1 -0.2789069067,5.1925148953 A0.1,0.1 0 0,0 -0.3708730415,5.242370951 L-1.402254121,7.0287753827 A0.1,0.1 0 0,0 -1.3339245192,7.1770917074 A7.3,7.3 0 0,0 1.1207690166,7.2134511028 A0.1,0.1 0 0,0 1.1920185568,7.0646367041 L0.2582606538,5.4473205739 A0.1,0.1 0 0,0 0.1685370568,5.3973692907 A5.4,5.4 0 0,1 -0.1685370568,5.3973692907 A0.1,0.1 0 0,0 -0.2582606538,5.4473205739 L-1.1575860357,7.004997828 " stroke="#C83434" stroke-dasharray="none" stroke-opacity="0.5" stroke-width="0.1" /><path d="M-8.4004464167,4.85 A9.7,9.7 0 0,0 -6.0777153343,7.5598529294 A1.2,1.2 0 0,0 -4.2866025404,7.2246133918 L-2.4184473036,3.9888736053 A2.2,2.2 0 0,0 -2.4944441492,1.6666578493 A3.0,3.0 0 0,1 -2.6905901115,1.326923077 A2.2,2.2 0 0,0 -4.6636895265,0.1 L-8.4285230023,0.1 A1.0,1.0 0 0,0 -9.4201139437,1.2294117647 A9.5,9.5 0 0,0 -5.9524016161,7.403979673 A1.0,1.0 0 0,0 -4.4598076212,7.1246133917 L-2.5916523844,3.8888736054 A2.0,2.0 0 0,0 -2.6607404258,1.7777683726 A3.2,3.2 0 0,1 -2.8699627856,1.4153846153 A2.0,2.0 0 0,0 -4.6636895266,0.3 L-8.4285230023,0.3 A0.8,0.8 0 0,0 -9.2217957554,1.2035294118 A9.3,9.3 0 0,0 -5.8270878979,7.2481064169 A0.8,0.8 0 0,0 -4.6330127019,7.0246133917 L-2.7648574652,3.7888736054 A1.8,1.8 0 0,0 -2.8270367025,1.8888788958 A3.4,3.4 0 0,1 -3.0493354596,1.5038461538 A1.8,1.8 0 0,0 -4.6636895265,0.5 L-8.4285230023,0.5000000001 A0.6,0.6 0 0,0 -9.0234775672,1.1776470589 A9.1,9.1 0 0,0 -5.7017741796,7.0922331607 A0.6,0.6 0 0,0 -4.8062177826,6.9246133918 L-2.9380625459,3.6888736053 A1.6,1.6 0 0,0 -2.9933329791,1.9999894191 A3.6,3.6 0 0,1 -3.2287081338,1.5923076922 A1.6,1.6 0 0,0 -4.6636895266,0.7 L-8.4285230023,0.7 A0.4,0.4 0 0,0 -8.8251593789,1.1517647059 A8.9,8.9 0 0,0 -5.5764604613,6.9363599044 A0.4,0.4 0 0,0 -4.9794228634,6.8246133918 L-3.1112676267,3.5888736054 A1.4,1.4 0 0,0 -3.1596292557,2.1110999424 A3.8,3.8 0 0,1 -3.4080808079,1.6807692308 A1.4,1.4 0 0,0 -4.6636895267,0.9 L-8.4285230023,0.9000000001 A0.2,0.2 0 0,0 -8.6268411906,1.125882353 A8.7,8.7 0 0,0 -5.4511467431,6.7804866481 A0.2,0.2 0 0,0 -5.1526279442,6.7246133918 L-3.2844727075,3.4888736054 A1.2,1.2 0 0,0 -3.3259255323,2.2222104656 A4.0,4.0 0 0,1 -3.5874534819,1.7692307693 A1.2,1.2 0 0,0 -4.6636895264,1.1000000001 L-8.3138438763,1.1 A0.1,0.1 0 0,0 -8.4128182082,1.2142857143 A8.5,8.5 0 0,0 -5.4174258351,6.5499234592 A0.1,0.1 0 0,0 -5.2670888731,6.5228655362 L-3.4576777882,3.3888736053 A1.0,1.0 0 0,0 -3.4922218089,2.3333209889 A4.2,4.2 0 0,1 -3.766826156,1.8576923077 A1.0,1.0 0 0,0 -4.6636895266,1.3000000001 L-8.0796039507,1.3 A0.1,0.1 0 0,0 -8.1781357062,1.4170731707 A8.3,8.3 0 0,0 -5.4727715047,6.2400939142 A0.1,0.1 0 0,0 -5.3202319583,6.2149120598 L-3.630882869,3.2888736054 A0.8,0.8 0 0,0 -3.6585180855,2.4444315123 A4.4,4.4 0 0,1 -3.9461988302,1.9461538462 A0.8,0.8 0 0,0 -4.6636895265,1.5 L-7.838367177,1.4999999999 A0.1,0.1 0 0,0 -7.9363467666,1.6199999999 A8.1,8.1 0 0,0 -5.5244842906,5.9236874768 A0.1,0.1 0 0,0 -5.3696782404,5.9005555327 L-3.8040879497,3.1888736054 A0.6,0.6 0 0,0 -3.8248143621,2.5555420355 A4.6,4.6 0 0,1 -4.1255715043,2.0346153845 A0.6,0.6 0 0,0 -4.6636895266,1.7 L-7.5894663844,1.7000000001 A0.1,0.1 0 0,0 -7.6867672354,1.8230769231 A7.9,7.9 0 0,0 -5.5722003544,5.6000520723 A0.1,0.1 0 0,0 -5.4150636322,5.5791653372 L-3.9772930304,3.0888736053 A0.4,0.4 0 0,0 -3.9911106388,2.6666525588 A4.8,4.8 0 0,1 -4.3049441783,2.123076923 A0.4,0.4 0 0,0 -4.6636895265,1.9 L-7.3321211119,1.9000000001 A0.1,0.1 0 0,0 -7.4285963897,2.0263157896 A7.7,7.7 0 0,0 -5.6154910392,5.2684210526 A0.1,0.1 0 0,0 -5.4559600438,5.25 L-4.1504981111,2.9888736054 A0.2,0.2 0 0,0 -4.1574069153,2.7777630821 A5.0,5.0 0 0,1 -4.4843168524,2.2115384615 A0.2,0.2 0 0,0 -4.6636895265,2.0999999999 L-7.0654086931,2.0999999999 A0.1,0.1 0 0,0 -7.1608871889,2.2297297297 A7.5,7.5 0 0,0 -5.6538455768,4.9278829322 A0.1,0.1 0 0,0 -5.4918584287,4.9121778265 L-4.3545898989,2.942370951 A0.1,0.1 0 0,0 -4.3573963555,2.8377979141 A5.2,5.2 0 0,1 -4.6363032622,2.3547169812 A0.1,0.1 0 0,0 -4.7254629404,2.3 L-6.7882250994,2.3 A0.1,0.1 0 0,0 -6.8825060035,2.4333333333 A7.3,7.3 0 0,0 -5.6866473957,4.5773399916 A0.1,0.1 0 0,0 -5.5221455759,4.564636704 L-4.5883876727,2.9473205739 A0.1,0.1 0 0,0 -4.589990391,2.844642018 A5.4,5.4 0 0,1 -4.7585274478,2.5527272727 A0.1,0.1 0 0,0 -4.8466483265,2.5 L-6.6452990904,2.5 " stroke="#C83434" stroke-dasharray="none" stroke-opacity="0.5" stroke-width="0.1" /><circle cx="0.0" cy="-0.0" r="11.5" stroke="#D0D2CD" stroke-dasharray="none" stroke-opacity="0.5" stroke-width="0.1" /><circle cx="0.0" cy="-0.0" r="2.0" stroke="#D0D2CD" stroke-dasharray="none" stroke-opacity="0.5" stroke-width="0.1" /></svg>